<svg xmlns="http://www.w3.org/2000/svg" viewBox="0 0 212 212" width="212" height="212" role="img" aria-label="口袋學院物語2 溪谷小鎮完美佈局縮圖">
<title>口袋學院物語2 溪谷小鎮完美佈局縮圖</title>
<rect width="212" height="212" fill="#f8fafc"/>
<rect x="2" y="2" width="8" height="8" fill="#4ade80"/>
<rect x="10" y="2" width="8" height="8" fill="#3b82f6"/>
<rect x="18" y="2" width="8" height="8" fill="#ffffff"/>
<rect x="26" y="2" width="8" height="8" fill="#bef264"/>
<rect x="34" y="2" width="48" height="8" fill="#ef4444"/>
<rect x="82" y="2" width="8" height="8" fill="#d97706"/>
<rect x="90" y="2" width="8" height="8" fill="#bef264"/>
<rect x="98" y="2" width="16" height="8" fill="#ef4444"/>
<rect x="114" y="2" width="8" height="8" fill="#f9a8d4"/>
<rect x="122" y="2" width="8" height="8" fill="#0891b2"/>
<rect x="130" y="2" width="8" height="8" fill="#d97706"/>
<rect x="138" y="2" width="8" height="8" fill="#bef264"/>
<rect x="146" y="2" width="24" height="8" fill="#d6d3d1"/>
<rect x="170" y="2" width="16" height="8" fill="#cbd5e1"/>
<rect x="186" y="2" width="24" height="8" fill="#d6d3d1"/>
<rect x="2" y="10" width="8" height="8" fill="#b45309"/>
<rect x="10" y="10" width="16" height="8" fill="#86efac"/>
<rect x="26" y="10" width="8" height="8" fill="#bef264"/>
<rect x="34" y="10" width="48" height="8" fill="#ef4444"/>
<rect x="82" y="10" width="8" height="8" fill="#d97706"/>
<rect x="90" y="10" width="8" height="8" fill="#bef264"/>
<rect x="98" y="10" width="32" height="8" fill="#ef4444"/>
<rect x="130" y="10" width="8" height="8" fill="#d97706"/>
<rect x="138" y="10" width="8" height="8" fill="#bef264"/>
<rect x="146" y="10" width="8" height="8" fill="#f97316"/>
<rect x="154" y="10" width="8" height="8" fill="#d6d3d1"/>
<rect x="162" y="10" width="8" height="8" fill="#f9a8d4"/>
<rect x="170" y="10" width="16" height="8" fill="#374151"/>
<rect x="186" y="10" width="8" height="8" fill="#f9a8d4"/>
<rect x="194" y="10" width="16" height="8" fill="#d6d3d1"/>
<rect x="2" y="18" width="16" height="8" fill="#65a30d"/>
<rect x="18" y="18" width="8" height="8" fill="#fcd34d"/>
<rect x="26" y="18" width="8" height="8" fill="#bef264"/>
<rect x="34" y="18" width="16" height="8" fill="#ef4444"/>
<rect x="50" y="18" width="8" height="8" fill="#d97706"/>
<rect x="58" y="18" width="8" height="8" fill="#d6d3d1"/>
<rect x="66" y="18" width="16" height="8" fill="#bef264"/>
<rect x="82" y="18" width="8" height="8" fill="#d97706"/>
<rect x="90" y="18" width="8" height="8" fill="#bef264"/>
<rect x="98" y="18" width="8" height="8" fill="#d97706"/>
<rect x="106" y="18" width="8" height="8" fill="#7c3aed"/>
<rect x="114" y="18" width="16" height="8" fill="#ef4444"/>
<rect x="130" y="18" width="8" height="8" fill="#d97706"/>
<rect x="138" y="18" width="8" height="8" fill="#bef264"/>
<rect x="146" y="18" width="8" height="8" fill="#f97316"/>
<rect x="154" y="18" width="16" height="8" fill="#d6d3d1"/>
<rect x="170" y="18" width="16" height="8" fill="#bef264"/>
<rect x="186" y="18" width="8" height="8" fill="#374151"/>
<rect x="194" y="18" width="8" height="8" fill="#fef08a"/>
<rect x="202" y="18" width="8" height="8" fill="#374151"/>
<rect x="2" y="26" width="16" height="8" fill="#65a30d"/>
<rect x="18" y="26" width="8" height="8" fill="#38bdf8"/>
<rect x="26" y="26" width="8" height="8" fill="#bef264"/>
<rect x="34" y="26" width="16" height="8" fill="#ef4444"/>
<rect x="50" y="26" width="8" height="8" fill="#d97706"/>
<rect x="58" y="26" width="8" height="8" fill="#bef264"/>
<rect x="66" y="26" width="8" height="8" fill="#d6d3d1"/>
<rect x="74" y="26" width="8" height="8" fill="#d97706"/>
<rect x="82" y="26" width="40" height="8" fill="#bef264"/>
<rect x="122" y="26" width="8" height="8" fill="#ca8a04"/>
<rect x="130" y="26" width="8" height="8" fill="#bef264"/>
<rect x="138" y="26" width="24" height="8" fill="#d6d3d1"/>
<rect x="162" y="26" width="8" height="8" fill="#f9a8d4"/>
<rect x="170" y="26" width="24" height="8" fill="#374151"/>
<rect x="194" y="26" width="8" height="8" fill="#fcd34d"/>
<rect x="202" y="26" width="8" height="8" fill="#374151"/>
<rect x="2" y="34" width="24" height="8" fill="#86efac"/>
<rect x="26" y="34" width="8" height="8" fill="#bef264"/>
<rect x="34" y="34" width="16" height="8" fill="#ef4444"/>
<rect x="50" y="34" width="8" height="8" fill="#bef264"/>
<rect x="58" y="34" width="24" height="8" fill="#d97706"/>
<rect x="82" y="34" width="8" height="8" fill="#bef264"/>
<rect x="90" y="34" width="16" height="8" fill="#d6d3d1"/>
<rect x="106" y="34" width="16" height="8" fill="#ef4444"/>
<rect x="122" y="34" width="8" height="8" fill="#ca8a04"/>
<rect x="130" y="34" width="8" height="8" fill="#4f46e5"/>
<rect x="138" y="34" width="16" height="8" fill="#6366f1"/>
<rect x="154" y="34" width="8" height="8" fill="#d6d3d1"/>
<rect x="162" y="34" width="8" height="8" fill="#f9a8d4"/>
<rect x="170" y="34" width="24" height="8" fill="#374151"/>
<rect x="194" y="34" width="8" height="8" fill="#d6d3d1"/>
<rect x="202" y="34" width="8" height="8" fill="#374151"/>
<rect x="2" y="42" width="8" height="8" fill="#4b5563"/>
<rect x="10" y="42" width="16" height="8" fill="#f59e0b"/>
<rect x="26" y="42" width="8" height="8" fill="#bef264"/>
<rect x="34" y="42" width="16" height="8" fill="#ef4444"/>
<rect x="50" y="42" width="8" height="8" fill="#bef264"/>
<rect x="58" y="42" width="8" height="8" fill="#be123c"/>
<rect x="66" y="42" width="8" height="8" fill="#d6d3d1"/>
<rect x="74" y="42" width="8" height="8" fill="#d97706"/>
<rect x="82" y="42" width="8" height="8" fill="#f97316"/>
<rect x="90" y="42" width="8" height="8" fill="#bef264"/>
<rect x="98" y="42" width="8" height="8" fill="#d6d3d1"/>
<rect x="106" y="42" width="16" height="8" fill="#ef4444"/>
<rect x="122" y="42" width="8" height="8" fill="#ca8a04"/>
<rect x="130" y="42" width="8" height="8" fill="#4f46e5"/>
<rect x="138" y="42" width="8" height="8" fill="#65a30d"/>
<rect x="146" y="42" width="8" height="8" fill="#d6d3d1"/>
<rect x="154" y="42" width="8" height="8" fill="#bef264"/>
<rect x="162" y="42" width="8" height="8" fill="#4ade80"/>
<rect x="170" y="42" width="16" height="8" fill="#374151"/>
<rect x="186" y="42" width="8" height="8" fill="#bef264"/>
<rect x="194" y="42" width="16" height="8" fill="#374151"/>
<rect x="2" y="50" width="8" height="8" fill="#4ade80"/>
<rect x="10" y="50" width="16" height="8" fill="#f59e0b"/>
<rect x="26" y="50" width="8" height="8" fill="#bef264"/>
<rect x="34" y="50" width="16" height="8" fill="#86efac"/>
<rect x="50" y="50" width="8" height="8" fill="#bef264"/>
<rect x="58" y="50" width="16" height="8" fill="#86efac"/>
<rect x="74" y="50" width="8" height="8" fill="#d97706"/>
<rect x="82" y="50" width="8" height="8" fill="#f97316"/>
<rect x="90" y="50" width="8" height="8" fill="#4ade80"/>
<rect x="98" y="50" width="8" height="8" fill="#fde047"/>
<rect x="106" y="50" width="16" height="8" fill="#818cf8"/>
<rect x="122" y="50" width="24" height="8" fill="#ca8a04"/>
<rect x="146" y="50" width="8" height="8" fill="#bef264"/>
<rect x="154" y="50" width="16" height="8" fill="#ca8a04"/>
<rect x="170" y="50" width="24" height="8" fill="#374151"/>
<rect x="194" y="50" width="8" height="8" fill="#bef264"/>
<rect x="202" y="50" width="8" height="8" fill="#f9a8d4"/>
<rect x="2" y="58" width="16" height="8" fill="#fb7185"/>
<rect x="18" y="58" width="8" height="8" fill="#fca5a5"/>
<rect x="26" y="58" width="8" height="8" fill="#bef264"/>
<rect x="34" y="58" width="8" height="8" fill="#86efac"/>
<rect x="42" y="58" width="8" height="8" fill="#b45309"/>
<rect x="50" y="58" width="8" height="8" fill="#86efac"/>
<rect x="58" y="58" width="8" height="8" fill="#bef264"/>
<rect x="66" y="58" width="40" height="8" fill="#86efac"/>
<rect x="106" y="58" width="32" height="8" fill="#818cf8"/>
<rect x="138" y="58" width="16" height="8" fill="#d97706"/>
<rect x="154" y="58" width="8" height="8" fill="#8b5cf6"/>
<rect x="162" y="58" width="32" height="8" fill="#374151"/>
<rect x="194" y="58" width="8" height="8" fill="#bef264"/>
<rect x="202" y="58" width="8" height="8" fill="#f9a8d4"/>
<rect x="2" y="66" width="16" height="8" fill="#fb7185"/>
<rect x="18" y="66" width="8" height="8" fill="#93c5fd"/>
<rect x="26" y="66" width="8" height="8" fill="#bef264"/>
<rect x="34" y="66" width="8" height="8" fill="#86efac"/>
<rect x="42" y="66" width="8" height="8" fill="#fef08a"/>
<rect x="50" y="66" width="32" height="8" fill="#86efac"/>
<rect x="82" y="66" width="16" height="8" fill="#6366f1"/>
<rect x="98" y="66" width="8" height="8" fill="#3b82f6"/>
<rect x="106" y="66" width="8" height="8" fill="#f472b6"/>
<rect x="114" y="66" width="8" height="8" fill="#d97706"/>
<rect x="122" y="66" width="16" height="8" fill="#818cf8"/>
<rect x="138" y="66" width="16" height="8" fill="#d97706"/>
<rect x="154" y="66" width="8" height="8" fill="#8b5cf6"/>
<rect x="162" y="66" width="32" height="8" fill="#374151"/>
<rect x="194" y="66" width="8" height="8" fill="#bef264"/>
<rect x="202" y="66" width="8" height="8" fill="#f9a8d4"/>
<rect x="2" y="74" width="24" height="8" fill="#86efac"/>
<rect x="26" y="74" width="8" height="8" fill="#bef264"/>
<rect x="34" y="74" width="8" height="8" fill="#86efac"/>
<rect x="42" y="74" width="8" height="8" fill="#93c5fd"/>
<rect x="50" y="74" width="8" height="8" fill="#86efac"/>
<rect x="58" y="74" width="24" height="8" fill="#60a5fa"/>
<rect x="82" y="74" width="40" height="8" fill="#d97706"/>
<rect x="122" y="74" width="16" height="8" fill="#f9a8d4"/>
<rect x="138" y="74" width="16" height="8" fill="#d97706"/>
<rect x="154" y="74" width="8" height="8" fill="#fef08a"/>
<rect x="162" y="74" width="32" height="8" fill="#d97706"/>
<rect x="194" y="74" width="16" height="8" fill="#bef264"/>
<rect x="2" y="82" width="8" height="8" fill="#fca5a5"/>
<rect x="10" y="82" width="8" height="8" fill="#d6d3d1"/>
<rect x="18" y="82" width="8" height="8" fill="#fbbf24"/>
<rect x="26" y="82" width="8" height="8" fill="#bef264"/>
<rect x="34" y="82" width="8" height="8" fill="#86efac"/>
<rect x="42" y="82" width="8" height="8" fill="#2dd4bf"/>
<rect x="50" y="82" width="8" height="8" fill="#86efac"/>
<rect x="58" y="82" width="24" height="8" fill="#60a5fa"/>
<rect x="82" y="82" width="16" height="8" fill="#16a34a"/>
<rect x="98" y="82" width="8" height="8" fill="#ea580c"/>
<rect x="106" y="82" width="8" height="8" fill="#4b5563"/>
<rect x="114" y="82" width="8" height="8" fill="#d97706"/>
<rect x="122" y="82" width="16" height="8" fill="#0ea5e9"/>
<rect x="138" y="82" width="16" height="8" fill="#3b82f6"/>
<rect x="154" y="82" width="8" height="8" fill="#d97706"/>
<rect x="162" y="82" width="16" height="8" fill="#d946ef"/>
<rect x="178" y="82" width="16" height="8" fill="#0ea5e9"/>
<rect x="194" y="82" width="8" height="8" fill="#bef264"/>
<rect x="202" y="82" width="8" height="8" fill="#86efac"/>
<rect x="2" y="90" width="8" height="8" fill="#9ca3af"/>
<rect x="10" y="90" width="16" height="8" fill="#86efac"/>
<rect x="26" y="90" width="8" height="8" fill="#bef264"/>
<rect x="34" y="90" width="16" height="8" fill="#86efac"/>
<rect x="50" y="90" width="8" height="8" fill="#bef264"/>
<rect x="58" y="90" width="8" height="8" fill="#3b82f6"/>
<rect x="66" y="90" width="8" height="8" fill="#94a3b8"/>
<rect x="74" y="90" width="8" height="8" fill="#86efac"/>
<rect x="82" y="90" width="16" height="8" fill="#16a34a"/>
<rect x="98" y="90" width="8" height="8" fill="#ea580c"/>
<rect x="106" y="90" width="8" height="8" fill="#93c5fd"/>
<rect x="114" y="90" width="8" height="8" fill="#d97706"/>
<rect x="122" y="90" width="16" height="8" fill="#0ea5e9"/>
<rect x="138" y="90" width="16" height="8" fill="#3b82f6"/>
<rect x="154" y="90" width="8" height="8" fill="#d97706"/>
<rect x="162" y="90" width="16" height="8" fill="#d946ef"/>
<rect x="178" y="90" width="16" height="8" fill="#0ea5e9"/>
<rect x="194" y="90" width="8" height="8" fill="#bef264"/>
<rect x="202" y="90" width="8" height="8" fill="#86efac"/>
<rect x="2" y="98" width="16" height="8" fill="#f59e0b"/>
<rect x="18" y="98" width="8" height="8" fill="#92400e"/>
<rect x="26" y="98" width="8" height="8" fill="#bef264"/>
<rect x="34" y="98" width="16" height="8" fill="#86efac"/>
<rect x="50" y="98" width="8" height="8" fill="#bef264"/>
<rect x="58" y="98" width="8" height="8" fill="#6b7280"/>
<rect x="66" y="98" width="8" height="8" fill="#fef08a"/>
<rect x="74" y="98" width="8" height="8" fill="#86efac"/>
<rect x="82" y="98" width="8" height="8" fill="#f472b6"/>
<rect x="90" y="98" width="8" height="8" fill="#c026d3"/>
<rect x="98" y="98" width="8" height="8" fill="#0891b2"/>
<rect x="106" y="98" width="8" height="8" fill="#65a30d"/>
<rect x="114" y="98" width="8" height="8" fill="#d97706"/>
<rect x="122" y="98" width="8" height="8" fill="#78350f"/>
<rect x="130" y="98" width="8" height="8" fill="#f472b6"/>
<rect x="138" y="98" width="8" height="8" fill="#93c5fd"/>
<rect x="146" y="98" width="8" height="8" fill="#94a3b8"/>
<rect x="154" y="98" width="8" height="8" fill="#d97706"/>
<rect x="162" y="98" width="8" height="8" fill="#4b5563"/>
<rect x="170" y="98" width="8" height="8" fill="#fb923c"/>
<rect x="178" y="98" width="8" height="8" fill="#fcd34d"/>
<rect x="186" y="98" width="8" height="8" fill="#4b5563"/>
<rect x="194" y="98" width="8" height="8" fill="#bef264"/>
<rect x="202" y="98" width="8" height="8" fill="#86efac"/>
<rect x="2" y="106" width="16" height="8" fill="#f59e0b"/>
<rect x="18" y="106" width="8" height="8" fill="#b45309"/>
<rect x="26" y="106" width="8" height="8" fill="#bef264"/>
<rect x="34" y="106" width="8" height="8" fill="#86efac"/>
<rect x="42" y="106" width="8" height="8" fill="#d6d3d1"/>
<rect x="50" y="106" width="8" height="8" fill="#86efac"/>
<rect x="58" y="106" width="136" height="8" fill="#bef264"/>
<rect x="194" y="106" width="8" height="8" fill="#d6d3d1"/>
<rect x="202" y="106" width="8" height="8" fill="#15803d"/>
<rect x="2" y="114" width="24" height="8" fill="#9ca3af"/>
<rect x="26" y="114" width="56" height="8" fill="#bef264"/>
<rect x="82" y="114" width="16" height="8" fill="#d6d3d1"/>
<rect x="98" y="114" width="8" height="8" fill="#15803d"/>
<rect x="106" y="114" width="80" height="8" fill="#d6d3d1"/>
<rect x="186" y="114" width="8" height="8" fill="#bef264"/>
<rect x="194" y="114" width="8" height="8" fill="#365314"/>
<rect x="202" y="114" width="8" height="8" fill="#15803d"/>
<rect x="2" y="122" width="16" height="8" fill="#16a34a"/>
<rect x="18" y="122" width="8" height="8" fill="#78716c"/>
<rect x="26" y="122" width="16" height="8" fill="#bef264"/>
<rect x="42" y="122" width="16" height="8" fill="#65a30d"/>
<rect x="58" y="122" width="16" height="8" fill="#9ca3af"/>
<rect x="74" y="122" width="8" height="8" fill="#bef264"/>
<rect x="82" y="122" width="16" height="8" fill="#d6d3d1"/>
<rect x="98" y="122" width="96" height="8" fill="#bef264"/>
<rect x="194" y="122" width="16" height="8" fill="#d6d3d1"/>
<rect x="2" y="130" width="16" height="8" fill="#16a34a"/>
<rect x="18" y="130" width="8" height="8" fill="#78716c"/>
<rect x="26" y="130" width="16" height="8" fill="#bef264"/>
<rect x="42" y="130" width="16" height="8" fill="#65a30d"/>
<rect x="58" y="130" width="16" height="8" fill="#9ca3af"/>
<rect x="74" y="130" width="8" height="8" fill="#bef264"/>
<rect x="82" y="130" width="8" height="8" fill="#d6d3d1"/>
<rect x="90" y="130" width="8" height="8" fill="#bef264"/>
<rect x="98" y="130" width="16" height="8" fill="#57534e"/>
<rect x="114" y="130" width="8" height="8" fill="#9ca3af"/>
<rect x="122" y="130" width="8" height="8" fill="#fb923c"/>
<rect x="130" y="130" width="8" height="8" fill="#c026d3"/>
<rect x="138" y="130" width="16" height="8" fill="#f472b6"/>
<rect x="154" y="130" width="8" height="8" fill="#374151"/>
<rect x="162" y="130" width="8" height="8" fill="#b45309"/>
<rect x="170" y="130" width="8" height="8" fill="#7c3aed"/>
<rect x="178" y="130" width="8" height="8" fill="#fcd34d"/>
<rect x="186" y="130" width="8" height="8" fill="#eab308"/>
<rect x="194" y="130" width="8" height="8" fill="#bef264"/>
<rect x="202" y="130" width="8" height="8" fill="#d6d3d1"/>
<rect x="2" y="138" width="16" height="8" fill="#f472b6"/>
<rect x="18" y="138" width="8" height="8" fill="#22d3ee"/>
<rect x="26" y="138" width="16" height="8" fill="#bef264"/>
<rect x="42" y="138" width="8" height="8" fill="#9ca3af"/>
<rect x="50" y="138" width="8" height="8" fill="#78716c"/>
<rect x="58" y="138" width="8" height="8" fill="#22d3ee"/>
<rect x="66" y="138" width="8" height="8" fill="#9ca3af"/>
<rect x="74" y="138" width="8" height="8" fill="#bef264"/>
<rect x="82" y="138" width="8" height="8" fill="#d6d3d1"/>
<rect x="90" y="138" width="8" height="8" fill="#bef264"/>
<rect x="98" y="138" width="16" height="8" fill="#57534e"/>
<rect x="114" y="138" width="8" height="8" fill="#9ca3af"/>
<rect x="122" y="138" width="16" height="8" fill="#f59e0b"/>
<rect x="138" y="138" width="16" height="8" fill="#f472b6"/>
<rect x="154" y="138" width="8" height="8" fill="#374151"/>
<rect x="162" y="138" width="16" height="8" fill="#3b82f6"/>
<rect x="178" y="138" width="16" height="8" fill="#ef4444"/>
<rect x="194" y="138" width="8" height="8" fill="#bef264"/>
<rect x="202" y="138" width="8" height="8" fill="#d6d3d1"/>
<rect x="2" y="146" width="16" height="8" fill="#f472b6"/>
<rect x="18" y="146" width="8" height="8" fill="#2dd4bf"/>
<rect x="26" y="146" width="16" height="8" fill="#bef264"/>
<rect x="42" y="146" width="8" height="8" fill="#9ca3af"/>
<rect x="50" y="146" width="8" height="8" fill="#f9a8d4"/>
<rect x="58" y="146" width="8" height="8" fill="#2dd4bf"/>
<rect x="66" y="146" width="8" height="8" fill="#9ca3af"/>
<rect x="74" y="146" width="8" height="8" fill="#bef264"/>
<rect x="82" y="146" width="8" height="8" fill="#d6d3d1"/>
<rect x="90" y="146" width="8" height="8" fill="#bef264"/>
<rect x="98" y="146" width="8" height="8" fill="#78716c"/>
<rect x="106" y="146" width="8" height="8" fill="#22d3ee"/>
<rect x="114" y="146" width="8" height="8" fill="#9ca3af"/>
<rect x="122" y="146" width="16" height="8" fill="#f59e0b"/>
<rect x="138" y="146" width="8" height="8" fill="#0891b2"/>
<rect x="146" y="146" width="8" height="8" fill="#86efac"/>
<rect x="154" y="146" width="8" height="8" fill="#374151"/>
<rect x="162" y="146" width="16" height="8" fill="#3b82f6"/>
<rect x="178" y="146" width="16" height="8" fill="#ef4444"/>
<rect x="194" y="146" width="8" height="8" fill="#bef264"/>
<rect x="202" y="146" width="8" height="8" fill="#d6d3d1"/>
<rect x="2" y="154" width="24" height="8" fill="#9ca3af"/>
<rect x="26" y="154" width="16" height="8" fill="#bef264"/>
<rect x="42" y="154" width="8" height="8" fill="#9ca3af"/>
<rect x="50" y="154" width="8" height="8" fill="#93c5fd"/>
<rect x="58" y="154" width="8" height="8" fill="#94a3b8"/>
<rect x="66" y="154" width="8" height="8" fill="#bef264"/>
<rect x="74" y="154" width="8" height="8" fill="#9ca3af"/>
<rect x="82" y="154" width="8" height="8" fill="#d6d3d1"/>
<rect x="90" y="154" width="8" height="8" fill="#bef264"/>
<rect x="98" y="154" width="16" height="8" fill="#4ade80"/>
<rect x="114" y="154" width="32" height="8" fill="#60a5fa"/>
<rect x="146" y="154" width="8" height="8" fill="#d97706"/>
<rect x="154" y="154" width="8" height="8" fill="#374151"/>
<rect x="162" y="154" width="24" height="8" fill="#d97706"/>
<rect x="186" y="154" width="8" height="8" fill="#bef264"/>
<rect x="194" y="154" width="16" height="8" fill="#d6d3d1"/>
<rect x="2" y="162" width="16" height="8" fill="#16a34a"/>
<rect x="18" y="162" width="8" height="8" fill="#2dd4bf"/>
<rect x="26" y="162" width="72" height="8" fill="#bef264"/>
<rect x="98" y="162" width="16" height="8" fill="#f43f5e"/>
<rect x="114" y="162" width="32" height="8" fill="#60a5fa"/>
<rect x="146" y="162" width="8" height="8" fill="#f97316"/>
<rect x="154" y="162" width="8" height="8" fill="#374151"/>
<rect x="162" y="162" width="8" height="8" fill="#fde047"/>
<rect x="170" y="162" width="8" height="8" fill="#facc15"/>
<rect x="178" y="162" width="8" height="8" fill="#bef264"/>
<rect x="186" y="162" width="24" height="8" fill="#d6d3d1"/>
<rect x="2" y="170" width="16" height="8" fill="#16a34a"/>
<rect x="18" y="170" width="8" height="8" fill="#78716c"/>
<rect x="26" y="170" width="56" height="8" fill="#bef264"/>
<rect x="82" y="170" width="16" height="8" fill="#d946ef"/>
<rect x="98" y="170" width="16" height="8" fill="#f43f5e"/>
<rect x="114" y="170" width="16" height="8" fill="#60a5fa"/>
<rect x="130" y="170" width="16" height="8" fill="#be123c"/>
<rect x="146" y="170" width="8" height="8" fill="#f97316"/>
<rect x="154" y="170" width="8" height="8" fill="#374151"/>
<rect x="162" y="170" width="8" height="8" fill="#fbbf24"/>
<rect x="170" y="170" width="8" height="8" fill="#bef264"/>
<rect x="178" y="170" width="8" height="8" fill="#86efac"/>
<rect x="186" y="170" width="24" height="8" fill="#bef264"/>
<rect x="2" y="178" width="16" height="8" fill="#64748b"/>
<rect x="18" y="178" width="16" height="8" fill="#0284c7"/>
<rect x="34" y="178" width="8" height="8" fill="#9ca3af"/>
<rect x="42" y="178" width="16" height="8" fill="#84cc16"/>
<rect x="58" y="178" width="8" height="8" fill="#ea580c"/>
<rect x="66" y="178" width="8" height="8" fill="#fcd34d"/>
<rect x="74" y="178" width="8" height="8" fill="#9ca3af"/>
<rect x="82" y="178" width="16" height="8" fill="#d946ef"/>
<rect x="98" y="178" width="16" height="8" fill="#a855f7"/>
<rect x="114" y="178" width="8" height="8" fill="#4ade80"/>
<rect x="122" y="178" width="16" height="8" fill="#f43f5e"/>
<rect x="138" y="178" width="16" height="8" fill="#fb7185"/>
<rect x="154" y="178" width="8" height="8" fill="#374151"/>
<rect x="162" y="178" width="8" height="8" fill="#d6d3d1"/>
<rect x="170" y="178" width="8" height="8" fill="#bef264"/>
<rect x="178" y="178" width="8" height="8" fill="#86efac"/>
<rect x="186" y="178" width="8" height="8" fill="#bef264"/>
<rect x="194" y="178" width="16" height="8" fill="#1d4ed8"/>
<rect x="2" y="186" width="16" height="8" fill="#64748b"/>
<rect x="18" y="186" width="16" height="8" fill="#0284c7"/>
<rect x="34" y="186" width="8" height="8" fill="#9ca3af"/>
<rect x="42" y="186" width="16" height="8" fill="#84cc16"/>
<rect x="58" y="186" width="8" height="8" fill="#ea580c"/>
<rect x="66" y="186" width="8" height="8" fill="#78716c"/>
<rect x="74" y="186" width="8" height="8" fill="#9ca3af"/>
<rect x="82" y="186" width="8" height="8" fill="#f472b6"/>
<rect x="90" y="186" width="8" height="8" fill="#94a3b8"/>
<rect x="98" y="186" width="16" height="8" fill="#a855f7"/>
<rect x="114" y="186" width="8" height="8" fill="#4ade80"/>
<rect x="122" y="186" width="16" height="8" fill="#f43f5e"/>
<rect x="138" y="186" width="16" height="8" fill="#fb7185"/>
<rect x="154" y="186" width="8" height="8" fill="#374151"/>
<rect x="162" y="186" width="8" height="8" fill="#86efac"/>
<rect x="170" y="186" width="8" height="8" fill="#bef264"/>
<rect x="178" y="186" width="8" height="8" fill="#8b5cf6"/>
<rect x="186" y="186" width="24" height="8" fill="#bef264"/>
<rect x="2" y="194" width="80" height="8" fill="#9ca3af"/>
<rect x="82" y="194" width="40" height="8" fill="#d97706"/>
<rect x="122" y="194" width="48" height="8" fill="#374151"/>
<rect x="170" y="194" width="8" height="8" fill="#bef264"/>
<rect x="178" y="194" width="8" height="8" fill="#8b5cf6"/>
<rect x="186" y="194" width="8" height="8" fill="#475569"/>
<rect x="194" y="194" width="16" height="8" fill="#bef264"/>
<rect x="2" y="202" width="8" height="8" fill="#fbbf24"/>
<rect x="10" y="202" width="8" height="8" fill="#9ca3af"/>
<rect x="18" y="202" width="8" height="8" fill="#92400e"/>
<rect x="26" y="202" width="8" height="8" fill="#b45309"/>
<rect x="34" y="202" width="8" height="8" fill="#bbf7d0"/>
<rect x="42" y="202" width="8" height="8" fill="#86efac"/>
<rect x="50" y="202" width="8" height="8" fill="#b45309"/>
<rect x="58" y="202" width="8" height="8" fill="#93c5fd"/>
<rect x="66" y="202" width="8" height="8" fill="#d6d3d1"/>
<rect x="74" y="202" width="8" height="8" fill="#4ade80"/>
<rect x="82" y="202" width="8" height="8" fill="#d6d3d1"/>
<rect x="90" y="202" width="8" height="8" fill="#fcd34d"/>
<rect x="98" y="202" width="16" height="8" fill="#86efac"/>
<rect x="114" y="202" width="8" height="8" fill="#bbf7d0"/>
<rect x="122" y="202" width="8" height="8" fill="#f472b6"/>
<rect x="130" y="202" width="8" height="8" fill="#94a3b8"/>
<rect x="138" y="202" width="8" height="8" fill="#fef08a"/>
<rect x="146" y="202" width="16" height="8" fill="#cbd5e1"/>
<rect x="162" y="202" width="8" height="8" fill="#d6d3d1"/>
<rect x="170" y="202" width="8" height="8" fill="#bef264"/>
<rect x="178" y="202" width="8" height="8" fill="#86efac"/>
<rect x="186" y="202" width="8" height="8" fill="#bef264"/>
<rect x="194" y="202" width="8" height="8" fill="#bbf7d0"/>
<rect x="202" y="202" width="8" height="8" fill="#86efac"/>
</svg>